<svg xmlns="http://www.w3.org/2000/svg" width="215" height="63" viewBox="0 0 215 63" fill="none"><g clip-path="url(#clip0_691_1622)"><path d="M74 61.2009C74 61.5159 73.9175 61.8254 73.7608 62.0983C73.6042 62.3711 73.3788 62.5977 73.1075 62.7554C72.8361 62.913 72.5283 62.9961 72.2149 62.9964C71.9015 62.9966 71.5935 62.914 71.3219 62.7567L35.7693 42.1238L29.779 38.6524V61.2072C29.7789 61.5222 29.6964 61.8317 29.5398 62.1046C29.3831 62.3774 29.1578 62.6041 28.8865 62.7617C28.6151 62.9193 28.3073 63.0025 27.9939 63.0027C27.6804 63.0029 27.3725 62.9203 27.1009 62.763L0.891632 47.5519C0.620279 47.3948 0.394972 47.1685 0.238421 46.8959C0.0818707 46.6233 -0.000371549 46.314 1.26186e-06 45.9992V13.4941C0.000582555 13.1793 0.0834735 12.8702 0.240357 12.5978C0.39724 12.3254 0.622595 12.0992 0.893855 11.9419C1.16512 11.7847 1.47274 11.7018 1.78589 11.7017C2.09904 11.7016 2.4067 11.7843 2.67806 11.9414L29.8794 27.7206L29.9422 1.78275C29.9422 1.30734 30.1301 0.851413 30.4645 0.515251C30.799 0.179089 31.2525 -0.00976562 31.7255 -0.00976562H41.6905C50.2593 -0.00892879 58.4769 3.41298 64.5359 9.50337C70.5949 15.5938 73.9992 23.8539 74 32.467V61.2009Z" fill="url(#paint0_linear_691_1622)"></path></g><g clip-path="url(#clip1_691_1622)"><path d="M96.1084 25.9902V8.29371C96.1084 7.76427 96.5923 7.49955 97.56 7.49955H98.5477C98.8776 7.48887 99.2069 7.53508 99.5212 7.63618C99.7732 7.73313 99.9815 7.91821 100.108 8.15709L107.129 18.8684C107.491 19.3902 107.812 19.9393 108.089 20.5107L108.2 20.4851C108.164 20.0639 108.145 19.4424 108.143 18.6207V8.29371C108.143 7.76427 108.628 7.49955 109.597 7.49955H110.198C111.166 7.49955 111.649 7.76427 111.649 8.29371V25.9902C111.649 26.5196 111.166 26.7844 110.198 26.7844H109.321C109.01 26.7957 108.699 26.7494 108.405 26.6478C108.164 26.5454 107.959 26.3741 107.815 26.1553L100.637 15.2505C100.269 14.7429 99.9493 14.2026 99.6806 13.6365L99.5695 13.6622C99.6075 14.0834 99.6255 14.7049 99.6236 15.5266V25.9902C99.6236 26.5196 99.1398 26.7844 98.172 26.7844H97.5686C96.5951 26.7825 96.1084 26.5177 96.1084 25.9902Z" fill="#0C838B"></path><path d="M116.738 25.0457C115.587 23.797 115.011 22.0028 115.011 19.663C115.011 17.1429 115.58 15.2709 116.719 14.0469C117.857 12.8229 119.47 12.2109 121.557 12.2109C123.529 12.2109 124.995 12.8504 125.955 14.1295C126.915 15.4085 127.394 17.1344 127.392 19.3072C127.392 19.5093 127.23 19.7968 126.9 20.1611C126.57 20.5255 126.331 20.7304 126.16 20.7304H118.6C118.691 21.9373 119.024 22.8102 119.599 23.3492C120.174 23.8881 121.01 24.1566 122.107 24.1547C123.158 24.1393 124.19 23.877 125.121 23.389C125.293 23.2997 125.477 23.2354 125.667 23.1983C125.904 23.1983 126.174 23.4403 126.476 23.9242C126.717 24.2495 126.873 24.6302 126.928 25.0314C126.928 25.3787 126.664 25.7003 126.134 25.9907C125.518 26.3134 124.859 26.5445 124.176 26.6767C123.46 26.8342 122.729 26.9162 121.996 26.9215C119.643 26.9215 117.89 26.2962 116.738 25.0457ZM123.968 18.2938C123.968 17.252 123.763 16.4408 123.353 15.8544C123.149 15.5661 122.874 15.3344 122.556 15.181C122.237 15.0277 121.885 14.9577 121.532 14.9777C119.824 14.9777 118.847 16.0831 118.6 18.2938H123.968Z" fill="#0C838B"></path><path d="M132.681 26.2638L129.174 13.4547C129.122 13.3054 129.094 13.1488 129.092 12.9907C129.092 12.5694 129.613 12.3588 130.654 12.3588C131.087 12.3428 131.52 12.3849 131.941 12.484C132.05 12.502 132.153 12.5479 132.239 12.6172C132.325 12.6866 132.392 12.7769 132.433 12.8797L134.38 20.6591C134.451 20.9722 134.517 21.3365 134.571 21.755L134.79 22.9078H134.901C135.091 21.8128 135.237 21.0367 135.34 20.5794L137.284 12.9081C137.355 12.5438 137.804 12.3588 138.624 12.3588H139.119C139.435 12.3513 139.75 12.3975 140.05 12.4954C140.306 12.5893 140.452 12.726 140.489 12.9081L142.433 20.6875L142.763 22.3584C142.814 22.5661 142.85 22.7773 142.871 22.9903H142.928L143.09 22.0311C143.148 21.5669 143.244 21.1081 143.375 20.6591L145.322 12.8797C145.394 12.5324 145.878 12.3588 146.773 12.3588C147.758 12.3588 148.253 12.5694 148.253 12.9907C148.257 13.1295 148.237 13.2679 148.196 13.4006L144.801 26.2751C144.764 26.4402 144.619 26.5598 144.362 26.6594C144.062 26.7573 143.747 26.8035 143.432 26.7961H142.293C141.488 26.7961 141.032 26.6224 140.921 26.2751L139.085 18.9882C139.051 18.863 138.994 18.5242 138.923 17.9749C138.903 17.8468 138.886 17.7073 138.866 17.5507C138.846 17.3942 138.821 17.2348 138.786 17.0725H138.704C138.667 17.2349 138.639 17.3993 138.621 17.565C138.601 17.7301 138.584 17.8752 138.567 18.0033C138.493 18.5498 138.439 18.8886 138.402 19.0167L136.595 26.2751C136.557 26.4402 136.415 26.5683 136.168 26.6594C135.873 26.7583 135.562 26.8045 135.251 26.7961H134.073C133.247 26.7818 132.789 26.611 132.681 26.2638Z" fill="#0C838B"></path><path d="M157.609 25.9903V8.29377C157.609 7.76433 158.093 7.49962 159.061 7.49962H160.049C160.378 7.48869 160.706 7.53491 161.019 7.63624C161.273 7.73215 161.482 7.91743 161.609 8.15715L168.611 18.8684C168.971 19.3909 169.292 19.9399 169.57 20.5108L169.678 20.4852C169.644 20.0639 169.624 19.4434 169.624 18.6208V8.29377C169.624 7.76433 170.108 7.49962 171.075 7.49962H171.679C172.647 7.49962 173.131 7.76433 173.131 8.29377V25.9903C173.131 26.5197 172.647 26.7844 171.679 26.7844H170.802C170.491 26.796 170.18 26.7496 169.886 26.6478C169.644 26.5472 169.438 26.3754 169.296 26.1554L162.118 15.2505C161.751 14.7423 161.43 14.2022 161.159 13.6366L161.051 13.6622C161.087 14.0835 161.105 14.705 161.105 15.5267V25.9903C161.105 26.5197 160.621 26.7844 159.653 26.7844H159.05C158.089 26.7825 157.609 26.5178 157.609 25.9903Z" fill="#0C838B"></path><path d="M178.237 25.0457C177.087 23.797 176.512 22.0028 176.512 19.663C176.512 17.1429 177.081 15.2709 178.22 14.0469C179.358 12.8229 180.971 12.2109 183.058 12.2109C185.032 12.2109 186.498 12.8504 187.456 14.1295C188.414 15.4085 188.889 17.1344 188.879 19.3072C188.879 19.5093 188.714 19.7968 188.387 20.1611C188.059 20.5255 187.817 20.7304 187.647 20.7304H180.087C180.178 21.9373 180.511 22.8102 181.086 23.3492C181.661 23.8881 182.497 24.1566 183.593 24.1547C184.643 24.1396 185.675 23.8773 186.605 23.389C186.778 23.2999 186.963 23.2357 187.154 23.1983C187.39 23.1983 187.661 23.4403 187.963 23.9242C188.204 24.2495 188.359 24.6302 188.415 25.0314C188.415 25.3787 188.148 25.7003 187.618 25.9907C187.003 26.3143 186.343 26.5454 185.66 26.6767C184.945 26.834 184.215 26.9161 183.482 26.9215C181.135 26.9215 179.387 26.2962 178.237 25.0457ZM185.469 18.2938C185.469 17.252 185.264 16.4408 184.854 15.8544C184.65 15.5661 184.375 15.3344 184.057 15.181C183.738 15.0277 183.386 14.9577 183.033 14.9777C181.325 14.9777 180.348 16.0831 180.101 18.2938H185.469Z" fill="#0C838B"></path><path d="M190.262 26.2919C190.304 26.0697 190.402 25.8619 190.547 25.6885L194.796 19.4433L190.812 13.4657C190.674 13.2779 190.577 13.0638 190.527 12.8367C190.527 12.5065 191.047 12.3414 192.087 12.3414H192.744C193.072 12.3321 193.399 12.3647 193.718 12.4382C193.94 12.4983 194.131 12.6407 194.253 12.8367L196.245 15.9678L196.712 16.7335L197.204 15.9393L199.231 12.8082C199.369 12.6194 199.572 12.4877 199.8 12.4382C200.119 12.3668 200.445 12.3343 200.771 12.3414H201.343C202.364 12.3414 202.875 12.5065 202.877 12.8367C202.835 13.0577 202.737 13.2643 202.593 13.4373L198.539 19.4149L202.729 25.6771C202.867 25.8645 202.964 26.0788 203.014 26.3062C203.014 26.6364 202.493 26.7986 201.451 26.7986H200.774C200.448 26.8086 200.121 26.777 199.803 26.7047C199.58 26.6453 199.389 26.5027 199.268 26.3062L197.022 22.8278C196.857 22.5887 196.709 22.361 196.584 22.1418L196.171 22.8278L193.871 26.3346C193.739 26.5198 193.544 26.6512 193.322 26.7047C193.008 26.7755 192.687 26.807 192.366 26.7986H191.796C190.775 26.7815 190.262 26.6221 190.262 26.2919Z" fill="#0C838B"></path><path d="M206.714 25.9081C206.012 25.2345 205.66 24.1756 205.658 22.7315V15.1712H204.918C204.806 15.1799 204.694 15.158 204.594 15.1079C204.494 15.0577 204.409 14.9812 204.349 14.8866C204.209 14.6076 204.148 14.2955 204.172 13.9843V13.5715C204.148 13.2603 204.209 12.9482 204.349 12.6692C204.409 12.5748 204.494 12.4984 204.594 12.4483C204.694 12.3982 204.806 12.3762 204.918 12.3846H205.658L206.014 9.69749C206.108 9.16804 206.526 8.90332 207.275 8.90332H207.932C208.718 8.90332 209.111 9.16804 209.111 9.69749V12.3846H210.782C210.893 12.3759 211.005 12.3978 211.106 12.4479C211.206 12.498 211.291 12.5746 211.351 12.6692C211.492 12.9479 211.554 13.26 211.53 13.5715V13.9843C211.554 14.2958 211.492 14.6079 211.351 14.8866C211.291 14.9815 211.206 15.0581 211.106 15.1083C211.006 15.1585 210.893 15.1803 210.782 15.1712H209.111V22.6774C209.111 23.2239 209.208 23.6082 209.395 23.816C209.505 23.9296 209.639 24.0178 209.786 24.0743C209.934 24.1309 210.092 24.1544 210.249 24.1433C210.424 24.1445 210.599 24.1264 210.77 24.0892C210.896 24.0579 211.025 24.0398 211.154 24.0351C211.374 24.0351 211.556 24.2686 211.701 24.7325C211.821 25.0633 211.895 25.4091 211.92 25.7601C211.92 26.5192 211.117 26.8987 209.509 26.8987C208.35 26.9139 207.418 26.5837 206.714 25.9081Z" fill="#0C838B"></path><path d="M98.0207 48.3074C96.6697 47.1688 95.9941 45.5662 95.9941 43.4997V31.3908C95.9941 30.8614 96.478 30.5967 97.4458 30.5967H98.1317C99.0995 30.5967 99.5834 30.8614 99.5834 31.3908V43.3631C99.5695 43.8558 99.6682 44.3452 99.8719 44.794C100.076 45.2429 100.379 45.6394 100.759 45.9534C101.632 46.6043 102.693 46.9547 103.783 46.9521C104.872 46.9496 105.931 46.5942 106.802 45.9391C107.181 45.6301 107.485 45.2389 107.691 44.7951C107.898 44.3514 108 43.8666 107.991 43.3773V31.3908C107.991 30.8614 108.475 30.5967 109.443 30.5967H110.101C111.068 30.5967 111.555 30.8614 111.555 31.3908V43.4997C111.555 45.5662 110.879 47.1688 109.526 48.3074C108.173 49.446 106.255 50.0153 103.773 50.0153C101.295 50.0191 99.3775 49.4498 98.0207 48.3074Z" fill="#0C838B"></path><path d="M115.449 49.0897V40.1034C115.472 39.2055 115.417 38.3074 115.284 37.4192C115.208 37.0756 115.154 36.7277 115.122 36.3774C115.122 36.1212 115.423 35.9248 116.024 35.7881C116.554 35.6605 117.096 35.5918 117.641 35.5832C117.777 35.5749 117.913 35.6083 118.031 35.6789C118.148 35.7496 118.241 35.8541 118.298 35.9788C118.424 36.2413 118.52 36.5173 118.583 36.8015C118.648 37.0861 118.688 37.2711 118.708 37.3708C119.201 36.7516 119.823 36.2467 120.53 35.8906C121.243 35.5148 122.037 35.3193 122.844 35.3213C125.62 35.3213 127.008 36.8005 127.008 39.759V49.1011C127.014 49.2241 126.985 49.3463 126.924 49.4533C126.863 49.5603 126.773 49.6475 126.664 49.7045C126.315 49.8541 125.935 49.9194 125.556 49.8952H125.035C124.068 49.8952 123.584 49.6305 123.584 49.1011V40.2115C123.584 38.8623 122.899 38.1867 121.529 38.1849C120.991 38.1876 120.468 38.3611 120.034 38.6801C119.576 38.9987 119.188 39.4087 118.896 39.8842V49.0897C118.896 49.6191 118.412 49.8838 117.444 49.8838H116.895C115.931 49.8838 115.449 49.6191 115.449 49.0897Z" fill="#0C838B"></path><path d="M130.68 32.5437V30.7675C130.68 30.164 131.274 29.8623 132.462 29.8623C133.611 29.8623 134.186 30.164 134.186 30.7675V32.5494C134.192 32.6926 134.155 32.8342 134.079 32.956C134.003 33.0777 133.893 33.174 133.762 33.2325C133.333 33.4064 132.87 33.4813 132.407 33.4517C131.256 33.4479 130.68 33.1452 130.68 32.5437ZM130.708 49.0902V36.2412C130.708 35.7118 131.192 35.4471 132.16 35.4471H132.709C133.677 35.4471 134.161 35.7118 134.161 36.2412V49.0902C134.161 49.6196 133.677 49.8844 132.709 49.8844H132.16C131.192 49.8844 130.708 49.6196 130.708 49.0902Z" fill="#0C838B"></path><path d="M140.844 49.3627L136.489 36.4596C136.431 36.31 136.393 36.1529 136.378 35.9928C136.378 35.6285 136.881 35.4463 137.887 35.4463H138.516C139.34 35.4463 139.796 35.6199 139.885 35.9672L141.912 42.3233C142.022 42.6516 142.232 43.4553 142.544 44.7343L142.763 45.6651H142.871C143.127 44.3861 143.383 43.2722 143.639 42.3233L145.695 35.9672C145.786 35.6199 146.242 35.4463 147.064 35.4463H147.547C148.496 35.4463 148.971 35.6285 148.971 35.9928C148.962 36.1512 148.934 36.3079 148.888 36.4596L144.505 49.3627C144.377 49.7099 143.918 49.8836 143.136 49.8836H142.23C141.435 49.8836 140.973 49.7099 140.844 49.3627Z" fill="#0C838B"></path><path d="M152.349 48.1443C151.199 46.8918 150.624 45.0976 150.624 42.7616C150.624 40.2397 151.193 38.3676 152.332 37.1455C153.47 35.9234 155.083 35.3115 157.171 35.3096C159.142 35.3096 160.608 35.9481 161.568 37.2252C162.528 38.5024 163.003 40.2283 162.991 42.403C162.991 42.6051 162.826 42.8926 162.499 43.2569C162.172 43.6213 161.93 43.8262 161.759 43.8262H154.199C154.29 45.0312 154.623 45.9032 155.198 46.4421C155.773 46.981 156.609 47.2505 157.706 47.2505C158.756 47.2343 159.788 46.971 160.717 46.482C160.891 46.3942 161.076 46.3301 161.266 46.2912C161.503 46.2912 161.773 46.5332 162.075 47.0171C162.315 47.3439 162.469 47.7255 162.525 48.1272C162.525 48.4745 162.26 48.7942 161.73 49.0865C161.115 49.409 160.455 49.6392 159.772 49.7696C159.057 49.9278 158.327 50.0108 157.595 50.0173C155.247 50.0192 153.499 49.3948 152.349 48.1443ZM159.581 41.3896C159.581 40.3507 159.377 39.5366 158.964 38.953C158.761 38.6639 158.487 38.4316 158.168 38.2782C157.85 38.1247 157.498 38.0552 157.145 38.0763C155.437 38.0763 154.46 39.1808 154.213 41.3896H159.581Z" fill="#0C838B"></path><path d="M166.074 49.0893V40.103C166.097 39.2052 166.042 38.307 165.909 37.4188C165.834 37.0752 165.779 36.7273 165.747 36.377C165.747 36.1208 166.032 35.9244 166.649 35.7878C167.179 35.6602 167.721 35.5914 168.266 35.5828C168.397 35.5759 168.528 35.6089 168.64 35.6775C168.752 35.7461 168.841 35.8471 168.895 35.9671C169.023 36.2237 169.119 36.4953 169.18 36.7755C169.245 37.0601 169.285 37.2537 169.305 37.3647C170.144 35.9927 171.157 35.3077 172.345 35.3096C172.914 35.3096 173.318 35.4405 173.563 35.7052C173.802 35.9512 173.935 36.2815 173.933 36.6246C173.921 37.0617 173.847 37.4948 173.714 37.9112C173.569 38.4037 173.387 38.6513 173.168 38.6513C172.985 38.631 172.806 38.5899 172.632 38.5289C172.371 38.4465 172.098 38.4042 171.824 38.4037C171.302 38.4005 170.797 38.5855 170.401 38.9246C170.053 39.1887 169.756 39.5137 169.524 39.8839V49.0893C169.524 49.6188 169.029 49.8835 168.044 49.8835H167.523C166.557 49.8835 166.074 49.6188 166.074 49.0893Z" fill="#0C838B"></path><path d="M177.36 49.8017C176.757 49.6767 176.179 49.4495 175.652 49.1299C175.214 48.8453 174.995 48.5606 174.995 48.239C175.037 47.8151 175.198 47.4118 175.459 47.0747C175.769 46.6108 176.045 46.3774 176.281 46.3774C176.494 46.4341 176.697 46.5213 176.885 46.6364C177.223 46.8145 177.575 46.9658 177.938 47.089C178.349 47.2232 178.78 47.2886 179.213 47.2825C180.528 47.2825 181.185 46.7711 181.185 45.7483C181.191 45.5242 181.141 45.3022 181.037 45.1031C180.934 44.904 180.783 44.7342 180.596 44.6097C180 44.241 179.36 43.9466 178.692 43.733C177.759 43.438 176.906 42.9326 176.199 42.2557C175.614 41.6522 175.322 40.7755 175.322 39.6255C175.297 39.0348 175.403 38.4458 175.633 37.901C175.863 37.3562 176.211 36.869 176.651 36.4745C177.537 35.6889 178.711 35.2961 180.172 35.2961C181.082 35.2907 181.987 35.4251 182.856 35.6946C183.695 35.9602 184.115 36.3113 184.117 36.7478C184.083 37.1698 183.952 37.5781 183.733 37.9404C183.477 38.4243 183.24 38.6663 183.021 38.6663C182.768 38.5825 182.521 38.4817 182.281 38.3646C181.76 38.1507 181.199 38.0479 180.636 38.0628C180.177 38.0408 179.72 38.1504 179.321 38.3788C179.167 38.4698 179.04 38.6004 178.953 38.7571C178.867 38.9137 178.824 39.0908 178.829 39.2697C178.818 39.6228 178.945 39.966 179.184 40.2261C179.414 40.4762 179.688 40.6809 179.993 40.8296C180.295 40.9776 180.829 41.2063 181.595 41.5156C182.654 41.9369 183.43 42.4388 183.924 43.0214C184.419 43.6077 184.664 44.4446 184.664 45.5433C184.684 46.1604 184.567 46.7743 184.321 47.3405C184.075 47.9067 183.706 48.411 183.24 48.8168C182.292 49.6479 181.036 50.0635 179.472 50.0635C178.76 50.0582 178.051 49.9703 177.36 49.8017Z" fill="#0C838B"></path><path d="M187.333 32.5437V30.7675C187.333 30.164 187.926 29.8623 189.112 29.8623C190.251 29.8623 190.84 30.164 190.84 30.7675V32.5494C190.845 32.6928 190.807 32.8345 190.731 32.9562C190.655 33.078 190.544 33.1742 190.413 33.2325C189.984 33.4064 189.521 33.4813 189.058 33.4517C187.908 33.4479 187.333 33.1452 187.333 32.5437ZM187.359 49.0902V36.2412C187.359 35.7118 187.843 35.4471 188.811 35.4471H189.36C190.328 35.4471 190.812 35.7118 190.812 36.2412V49.0902C190.812 49.6196 190.328 49.8844 189.36 49.8844H188.819C187.846 49.8844 187.359 49.6196 187.359 49.0902Z" fill="#0C838B"></path><path d="M196.14 49.0077C195.436 48.334 195.084 47.2741 195.084 45.8281V38.2679H194.344C194.232 38.276 194.121 38.2538 194.02 38.2037C193.92 38.1536 193.835 38.0775 193.775 37.9833C193.634 37.7034 193.573 37.3903 193.598 37.0781V36.6682C193.574 36.356 193.635 36.0431 193.775 35.763C193.835 35.6688 193.92 35.5927 194.02 35.5426C194.121 35.4925 194.232 35.4703 194.344 35.4784H195.084L195.44 32.7942C195.534 32.2647 195.952 32 196.701 32H197.358C198.144 32 198.537 32.2647 198.537 32.7942V35.4784H200.205C200.316 35.4697 200.429 35.4916 200.529 35.5417C200.629 35.5919 200.714 35.6684 200.774 35.763C200.916 36.0426 200.978 36.3557 200.953 36.6682V37.0781C200.978 37.3906 200.916 37.7037 200.774 37.9833C200.714 38.0779 200.629 38.1544 200.529 38.2046C200.429 38.2547 200.316 38.2766 200.205 38.2679H198.534V45.774C198.534 46.3234 198.631 46.7048 198.819 46.9126C198.928 47.0265 199.062 47.115 199.209 47.172C199.357 47.229 199.515 47.2532 199.672 47.2428C199.848 47.2441 200.022 47.2259 200.193 47.1888C200.319 47.1568 200.448 47.1377 200.578 47.1318C200.798 47.1318 200.98 47.3652 201.124 47.8321C201.244 48.1628 201.318 48.5086 201.343 48.8596C201.343 49.6187 200.54 49.9982 198.932 49.9982C197.907 50.0498 196.904 49.6937 196.14 49.0077Z" fill="#0C838B"></path><path d="M215.006 35.9928C214.999 36.1513 214.971 36.3083 214.923 36.4596L208.377 54.9247C208.232 55.3042 207.749 55.494 206.925 55.494H206.487C206.133 55.5096 205.78 55.4584 205.445 55.3431C205.209 55.2435 205.089 55.1097 205.089 54.9446C205.104 54.7825 205.15 54.6248 205.226 54.4806L207.144 49.4936L202.51 36.4596C202.488 36.3924 202.469 36.324 202.453 36.2547C202.436 36.1685 202.427 36.0807 202.428 35.9928C202.428 35.6285 202.93 35.4463 203.933 35.4463H204.563C205.368 35.4463 205.832 35.6199 205.96 35.9672L207.987 41.8565C208.19 42.4979 208.455 43.5417 208.784 44.9877H208.863L209.111 44.0028C209.329 43.0881 209.519 42.3755 209.68 41.8651L211.673 35.9757C211.801 35.6285 212.265 35.4548 213.07 35.4548H213.534C214.515 35.4491 215.006 35.6285 215.006 35.9928Z" fill="#0C838B"></path></g><defs><linearGradient id="paint0_linear_691_1622" x1="13.8299" y1="60.6391" x2="64.878" y2="9.8539" gradientUnits="userSpaceOnUse"><stop stop-color="#09828A"></stop><stop offset="0.27" stop-color="#119488"></stop><stop offset="0.72" stop-color="#1BAC85"></stop><stop offset="1" stop-color="#1FB584"></stop></linearGradient><clipPath id="clip0_691_1622"><rect width="74" height="63" fill="white"></rect></clipPath><clipPath id="clip1_691_1622"><rect width="119" height="48" fill="white" transform="translate(96 7.5)"></rect></clipPath></defs></svg>